<?xml version="1.0" standalone="no"?>
<!DOCTYPE svg PUBLIC "-//W3C//DTD SVG 20010904//EN"
 "http://www.w3.org/TR/2001/REC-SVG-20010904/DTD/svg10.dtd">
<svg version="1.0" xmlns="http://www.w3.org/2000/svg"
 width="1920.000000pt" height="720.000000pt" viewBox="0 0 1920.000000 720.000000"
 preserveAspectRatio="xMidYMid meet">

<g transform="translate(0.000000,720.000000) scale(0.100000,-0.100000)"
fill="#000000" stroke="none">
<path d="M1132 5245 c-147 -74 -291 -188 -397 -315 -170 -204 -270 -415 -326
-687 -21 -102 -23 -138 -27 -615 l-4 -508 857 0 856 0 -4 528 c-3 497 -5 532
-25 624 -43 191 -122 376 -230 538 -71 106 -253 289 -352 355 -85 56 -217 124
-241 125 -10 0 -57 -20 -107 -45z m202 -130 c106 -60 169 -110 268 -213 140
-145 237 -307 303 -505 64 -194 69 -242 70 -727 l0 -435 -287 -3 c-247 -2
-288 0 -288 12 0 8 4 17 9 20 5 4 30 49 55 102 53 110 85 159 162 246 106 122
169 298 149 425 l-7 48 -13 -41 c-38 -126 -144 -255 -263 -317 -218 -115 -462
-78 -635 94 -63 63 -85 99 -145 239 -9 20 -11 8 -11 -66 -1 -152 52 -285 154
-384 65 -63 116 -140 175 -266 27 -59 50 -108 50 -110 0 -2 -131 -4 -291 -4
l-290 0 4 468 c4 461 4 468 29 572 75 305 236 567 455 741 83 67 220 149 247
149 12 0 57 -20 100 -45z"/>
<path d="M1201 4987 l-103 -10 6 -71 c4 -39 9 -90 12 -113 6 -41 5 -43 -21
-43 -49 0 -85 -28 -85 -67 0 -43 87 -41 116 2 13 20 14 38 5 112 -5 48 -9 89
-8 90 5 3 229 24 232 21 2 -2 7 -27 11 -56 l7 -52 -34 0 c-64 0 -105 -52 -68
-86 23 -21 78 -12 104 16 17 18 17 29 6 133 -6 62 -11 119 -11 125 0 14 -18
13 -169 -1z"/>
<path d="M1485 4663 c-40 -106 -46 -116 -58 -104 -24 24 -87 10 -87 -20 0 -22
28 -39 65 -39 23 0 31 9 60 73 25 54 35 68 40 54 4 -9 5 -31 3 -49 -5 -29 -4
-30 9 -12 10 13 13 36 10 72 -5 75 -20 83 -42 25z"/>
<path d="M1613 4340 c61 -133 107 -220 117 -220 29 0 14 39 -55 151 -96 153
-105 164 -62 69z"/>
<path d="M1170 4042 c-22 -11 -44 -35 -58 -63 -81 -154 117 -284 237 -155 36
39 41 119 9 166 -44 65 -122 87 -188 52z"/>
<path d="M13030 4794 c-179 -48 -292 -201 -318 -429 -5 -44 -12 -69 -19 -68
-29 6 -119 -19 -140 -39 -41 -39 -31 -46 65 -44 l87 1 3 -472 2 -472 51 32
c42 26 64 32 121 35 59 4 68 7 62 21 -16 39 -23 189 -23 509 l-1 342 38 0 c20
0 56 -5 79 -10 39 -9 50 -7 110 22 54 26 69 38 71 58 l3 25 -147 -5 c-80 -3
-148 -2 -150 2 -3 4 0 61 5 127 15 184 50 241 149 241 50 0 125 -26 148 -51 9
-10 21 -19 25 -19 4 0 35 32 69 72 l62 72 -37 18 c-46 24 -155 48 -215 47 -25
0 -70 -7 -100 -15z"/>
<path d="M4445 4783 c-55 -9 -101 -17 -103 -18 -2 -2 3 -14 11 -27 13 -19 16
-107 22 -538 7 -531 0 -727 -29 -811 -8 -24 -13 -45 -11 -47 7 -8 101 40 126
64 l27 25 53 -30 c153 -86 398 -83 539 7 97 62 174 160 225 287 25 61 29 87
33 195 4 109 1 134 -18 190 -40 122 -121 212 -230 257 -34 13 -71 18 -151 18
-101 0 -108 -1 -181 -38 -51 -25 -90 -53 -117 -84 l-41 -46 0 307 0 306 -27
-1 c-16 -1 -73 -8 -128 -16z m466 -605 c80 -27 151 -103 184 -198 58 -166 23
-385 -77 -476 -49 -44 -76 -54 -142 -54 -103 0 -191 49 -247 139 l-29 45 0
208 c0 232 3 247 65 293 64 49 173 68 246 43z"/>
<path d="M10020 4785 c-41 -7 -96 -16 -123 -19 l-47 -7 20 -26 c20 -25 20 -39
20 -612 0 -583 -6 -694 -35 -752 -18 -34 -20 -33 35 -14 55 19 98 19 168 -1
133 -39 305 15 359 111 10 18 13 17 49 -15 21 -18 68 -47 104 -64 61 -29 72
-31 180 -31 131 1 185 17 289 86 50 34 131 122 131 143 0 3 -28 -10 -63 -29
-163 -89 -352 -85 -465 10 l-34 28 304 304 303 304 -52 49 c-81 75 -197 120
-306 120 -115 -1 -282 -62 -366 -136 -167 -145 -225 -430 -130 -636 18 -37 38
-73 45 -79 25 -21 14 -37 -41 -64 -98 -46 -199 -34 -233 29 -15 28 -17 90 -19
671 -2 352 -6 641 -10 641 -5 1 -42 -4 -83 -11z m843 -570 c61 -16 119 -50
143 -83 13 -19 0 -34 -212 -241 -125 -122 -232 -220 -238 -218 -17 6 -55 112
-65 183 -18 122 14 231 84 292 85 75 176 96 288 67z"/>
<path d="M16206 4779 c-66 -10 -121 -21 -124 -24 -3 -3 2 -13 10 -22 14 -16
17 -86 23 -533 7 -536 -1 -746 -30 -816 -8 -20 -15 -38 -15 -39 0 -2 21 3 47
11 60 18 103 18 164 -2 71 -24 177 -15 251 20 51 24 118 84 118 105 0 4 -26
-6 -59 -22 -73 -36 -158 -40 -199 -10 -58 42 -56 22 -53 716 1 350 -1 637 -6
636 -4 -1 -62 -10 -127 -20z"/>
<path d="M13755 4644 c-16 -2 -82 -11 -145 -20 -63 -9 -117 -18 -119 -20 -2
-2 3 -12 13 -23 16 -17 17 -66 14 -652 -3 -573 -5 -638 -21 -678 -9 -24 -17
-45 -17 -47 0 -1 24 13 53 33 28 20 89 54 135 76 l82 39 0 248 0 248 97 12
c336 42 535 187 551 399 7 101 -15 166 -82 239 -58 62 -128 103 -217 128 -53
15 -283 27 -344 18z m247 -110 c152 -51 227 -240 154 -387 -56 -115 -166 -178
-353 -202 l-53 -7 0 300 0 301 23 4 c56 11 186 6 229 -9z"/>
<path d="M2675 4610 c-8 -16 -30 -63 -49 -102 l-33 -73 56 27 c73 35 191 58
316 61 l100 2 0 -545 c0 -300 -4 -558 -8 -573 -5 -18 -19 -33 -40 -42 -51 -22
-11 -29 122 -22 67 4 132 2 151 -3 19 -5 36 -8 38 -5 2 2 -5 19 -17 38 -21 34
-21 42 -21 596 l0 561 43 0 c62 0 225 -18 282 -31 28 -6 75 -23 106 -38 l56
-26 -15 35 c-8 19 -30 65 -48 103 l-34 67 -495 0 -494 0 -16 -30z"/>
<path d="M3714 4356 c-59 -14 -157 -57 -168 -74 -3 -5 25 -4 62 1 150 20 339
-31 397 -107 32 -41 55 -108 55 -156 l0 -38 -67 -6 c-219 -20 -307 -41 -404
-99 -225 -135 -210 -471 23 -527 98 -24 264 7 397 75 l48 24 16 -34 c26 -54
57 -68 160 -73 l91 -5 -27 32 -27 33 0 339 c0 310 -2 343 -19 389 -38 99 -116
169 -236 210 -78 27 -220 34 -301 16z m344 -643 l-3 -187 -70 -30 c-137 -57
-251 -44 -319 35 -55 65 -67 156 -30 230 41 81 181 134 362 138 l62 1 -2 -187z"/>
<path d="M5821 4354 c-209 -45 -367 -201 -411 -405 -19 -84 -8 -251 19 -321
30 -79 102 -173 158 -208 91 -58 147 -72 258 -68 117 5 187 27 273 86 50 34
132 123 132 144 0 4 -28 -8 -63 -27 -89 -49 -174 -69 -270 -62 -84 6 -165 37
-205 80 l-22 23 303 302 303 303 -45 43 c-119 110 -262 147 -430 110z m185
-160 c30 -14 63 -37 74 -52 l21 -26 -228 -228 c-255 -255 -234 -244 -275 -139
-30 78 -36 221 -13 291 53 161 253 234 421 154z"/>
<path d="M8440 4359 c-56 -10 -140 -45 -175 -73 -19 -16 -19 -16 10 -9 17 4
75 7 130 7 225 -1 355 -89 366 -249 4 -61 6 -60 -89 -63 -118 -4 -263 -35
-337 -71 -152 -75 -236 -240 -196 -387 14 -51 71 -119 125 -146 93 -47 257
-30 415 43 46 22 85 38 86 37 1 -2 7 -16 12 -32 16 -52 50 -68 154 -73 l94 -6
-22 24 c-22 24 -22 30 -25 374 l-3 350 -29 62 c-76 166 -282 250 -516 212z
m331 -606 c1 -200 0 -216 -19 -230 -34 -27 -130 -56 -197 -60 -59 -4 -77 -1
-115 19 -64 33 -103 93 -108 167 -11 158 119 245 376 250 l62 1 1 -147z"/>
<path d="M12027 4355 c-133 -37 -279 -155 -345 -281 -162 -310 11 -681 343
-736 241 -40 498 130 575 381 25 80 27 224 4 302 -50 169 -173 290 -339 334
-71 18 -172 18 -238 0z m142 -141 c69 -20 137 -87 179 -175 108 -229 42 -523
-127 -569 -122 -32 -288 83 -366 253 -65 140 -32 369 64 450 62 52 160 68 250
41z"/>
<path d="M15455 4356 c-65 -15 -148 -50 -164 -70 -8 -10 4 -11 57 -3 87 11
230 -6 298 -37 94 -43 154 -133 154 -232 l0 -32 -67 -6 c-38 -4 -106 -11 -151
-17 -259 -32 -412 -166 -414 -363 -2 -172 113 -267 304 -253 84 7 206 43 278
83 24 14 46 21 48 15 11 -34 52 -78 82 -88 19 -7 68 -12 108 -12 l74 -1 -26
31 -26 31 0 338 c0 270 -3 346 -15 379 -36 102 -120 180 -240 221 -78 27 -220
34 -300 16z m345 -640 l0 -185 -54 -25 c-136 -64 -253 -60 -329 12 -77 72 -86
195 -20 272 54 65 180 105 341 109 l62 1 0 -184z"/>
<path d="M6430 4343 c-128 -19 -125 -17 -100 -51 21 -29 22 -33 17 -493 -3
-393 -6 -474 -21 -528 -9 -35 -15 -65 -14 -67 2 -1 39 20 83 48 43 28 100 59
125 69 l45 17 5 359 c6 397 3 384 73 437 97 75 250 80 306 12 8 -9 16 -16 20
-16 9 0 165 130 169 140 4 12 -77 65 -122 80 -24 8 -71 11 -126 8 -74 -3 -98
-9 -154 -37 -37 -18 -88 -54 -116 -83 l-50 -51 0 87 c0 100 14 93 -140 69z"/>
<path d="M7293 4342 c-103 -16 -120 -26 -87 -52 13 -12 15 -69 12 -499 -3
-421 -6 -493 -21 -536 -9 -27 -15 -51 -13 -53 2 -1 38 19 79 46 42 27 101 60
132 73 l55 23 0 359 0 360 25 33 c14 18 53 46 86 63 51 25 74 31 129 31 77 0
121 -22 154 -79 19 -32 20 -56 24 -350 3 -251 0 -327 -11 -368 l-14 -53 55 0
c31 0 93 -7 140 -16 46 -8 86 -14 88 -11 2 2 -4 21 -13 43 -15 34 -18 87 -23
409 -5 316 -9 377 -23 416 -23 60 -68 113 -125 147 -43 25 -55 27 -153 27
-101 0 -108 -1 -181 -37 -46 -23 -91 -55 -117 -83 l-41 -45 0 85 0 85 -27 -1
c-16 -1 -74 -9 -130 -17z"/>
<path d="M9425 4341 c-227 -66 -368 -245 -382 -487 -14 -220 80 -394 257 -478
59 -28 74 -31 165 -31 93 0 105 2 167 33 46 23 85 53 133 103 36 39 64 73 62
76 -3 2 -29 -8 -57 -22 -239 -121 -475 -7 -545 262 -46 177 10 329 148 398 92
46 223 31 290 -33 l28 -26 76 76 76 76 -46 26 c-25 15 -60 31 -79 36 -54 16
-226 11 -293 -9z"/>
<path d="M14624 4339 c-90 -28 -152 -74 -188 -139 -27 -48 -31 -65 -31 -130 0
-64 4 -82 28 -122 47 -81 97 -109 302 -170 170 -50 255 -112 255 -183 0 -50
-60 -108 -126 -124 -96 -23 -224 25 -331 122 l-53 49 -29 -64 c-47 -105 -47
-106 -11 -143 72 -74 222 -111 355 -86 127 23 248 108 293 203 48 103 19 244
-64 317 -49 44 -94 64 -219 101 -187 55 -275 114 -275 185 0 87 168 132 280
75 19 -10 56 -39 81 -64 l45 -47 54 62 54 62 -44 39 c-25 21 -69 47 -98 58
-70 27 -194 26 -278 -1z"/>
<path d="M16810 4344 c-47 -8 -100 -16 -117 -19 l-33 -6 21 -28 c20 -27 20
-35 17 -502 -4 -407 -7 -482 -21 -532 -9 -32 -17 -60 -17 -62 0 -3 21 10 48
29 57 41 178 106 197 106 12 0 15 62 17 365 l3 364 40 41 c101 105 221 112
272 17 16 -29 18 -67 18 -382 0 -267 -3 -355 -13 -372 -12 -22 -11 -23 30 -23
24 0 87 -7 140 -17 54 -9 100 -14 103 -11 3 3 -3 22 -12 44 -15 34 -18 82 -21
369 l-3 330 34 40 c104 121 311 127 365 12 18 -37 20 -71 25 -292 4 -242 -2
-422 -18 -457 -6 -16 -1 -18 46 -18 30 -1 83 -7 119 -15 36 -8 77 -14 92 -15
l26 0 -16 33 c-14 27 -18 87 -24 401 -8 434 -11 450 -94 533 -79 79 -186 102
-317 68 -83 -21 -133 -50 -198 -112 l-57 -54 -22 35 c-33 54 -106 113 -162
132 -105 35 -218 -3 -307 -103 l-51 -57 0 87 c0 64 -3 87 -12 86 -7 -1 -51 -8
-98 -15z"/>
<path d="M18420 4346 c-162 -48 -240 -136 -240 -271 0 -77 18 -127 63 -173 44
-46 88 -67 259 -123 162 -52 226 -89 252 -144 20 -42 15 -68 -23 -108 -95
-103 -268 -76 -417 65 -28 26 -53 48 -56 48 -3 0 -22 -39 -43 -87 l-38 -87 44
-38 c119 -103 320 -116 482 -31 200 105 247 320 101 465 -47 47 -92 69 -223
108 -160 48 -259 105 -277 162 -16 52 50 112 138 124 77 11 151 -18 215 -82
l55 -55 37 42 c67 79 67 77 35 111 -55 58 -118 81 -224 85 -58 1 -113 -3 -140
-11z"/>
<path d="M818 3083 c232 -2 612 -2 845 0 232 1 42 2 -423 2 -465 0 -655 -1
-422 -2z"/>
<path d="M878 3043 c200 -2 524 -2 720 0 196 1 33 2 -363 2 -396 0 -557 -1
-357 -2z"/>
<path d="M943 3013 c164 -2 430 -2 590 0 161 1 27 2 -298 2 -324 0 -456 -1
-292 -2z"/>
</g>
</svg>
